<svg xmlns="http://www.w3.org/2000/svg" xmlns:xlink="http://www.w3.org/1999/xlink" viewBox="0 0 100 100" width="100px" height="100px"><g id="surface58376957"><path style=" stroke:none;fill-rule:nonzero;fill:rgb(24.705882%,0.392157%,81.960785%);fill-opacity:1;" d="M 50 2 C 32.320312 2 18 16.320312 18 34 C 18 48.617188 25.71875 64.328125 33.3125 76.5 C 40.90625 88.671875 48.5 97.3125 48.5 97.3125 C 48.882812 97.742188 49.429688 97.992188 50 97.992188 C 50.570312 97.992188 51.117188 97.742188 51.5 97.3125 C 51.5 97.3125 59.101562 88.492188 66.6875 76.25 C 74.273438 64.007812 82 48.335938 82 34 C 82 16.320312 67.679688 2 50 2 Z M 50 6 C 65.523438 6 78 18.476562 78 34 C 78 46.867188 70.726562 62.164062 63.3125 74.125 C 57.101562 84.148438 51.84375 90.601562 50 92.8125 C 48.140625 90.617188 42.882812 84.304688 36.6875 74.375 C 29.28125 62.5 22 47.179688 22 34 C 22 18.476562 34.476562 6 50 6 Z M 50 22 C 42.289062 22 36 28.289062 36 36 C 36 43.710938 42.289062 50 50 50 C 57.710938 50 64 43.710938 64 36 C 64 28.289062 57.710938 22 50 22 Z M 50 26 C 55.546875 26 60 30.453125 60 36 C 60 41.546875 55.546875 46 50 46 C 44.453125 46 40 41.546875 40 36 C 40 30.453125 44.453125 26 50 26 Z M 50 26 "></path></g></svg>