<svg xmlns="http://www.w3.org/2000/svg" xmlns:xlink="http://www.w3.org/1999/xlink" viewBox="0 0 100 100" width="100px" height="100px"><g id="surface58377276"><path style=" stroke:none;fill-rule:nonzero;fill:rgb(24.705882%,0.392157%,81.960785%);fill-opacity:1;" d="M 23.679688 5.976562 C 22.140625 5.851562 20.429688 6.296875 18.851562 7.40625 C 17.460938 8.375 14.460938 10.757812 11.65625 13.453125 C 10.257812 14.796875 8.921875 16.195312 7.890625 17.570312 C 6.851562 18.945312 5.945312 20.203125 6 22.03125 C 6.054688 23.671875 6.21875 28.523438 9.710938 35.960938 C 13.203125 43.390625 19.976562 53.585938 33.1875 66.804688 C 46.40625 80.023438 56.601562 86.796875 64.03125 90.289062 C 71.460938 93.78125 76.320312 93.945312 77.960938 94 C 79.78125 94.054688 81.039062 93.148438 82.414062 92.109375 C 83.789062 91.070312 85.1875 89.742188 86.53125 88.34375 C 89.21875 85.539062 91.601562 82.539062 92.570312 81.148438 C 94.78125 78 94.414062 74.28125 91.953125 72.554688 C 90.40625 71.46875 76.179688 62 74.039062 60.6875 C 71.867188 59.359375 69.367188 59.960938 67.132812 61.140625 C 65.375 62.070312 60.617188 64.796875 59.257812 65.578125 C 58.234375 64.929688 54.351562 62.34375 46 53.992188 C 37.640625 45.640625 35.0625 41.757812 34.414062 40.734375 C 35.195312 39.375 37.914062 34.640625 38.851562 32.851562 C 40.023438 30.625 40.679688 28.101562 39.28125 25.914062 C 38.695312 24.984375 36.03125 20.929688 33.34375 16.859375 C 30.648438 12.789062 28.09375 8.929688 27.429688 8.007812 L 27.429688 8 C 26.5625 6.804688 25.210938 6.101562 23.679688 5.976562 Z M 23.3125 10.0625 C 23.859375 10.132812 24.1875 10.351562 24.1875 10.351562 C 24.507812 10.796875 27.3125 15 30 19.0625 C 32.6875 23.132812 35.429688 27.304688 35.90625 28.0625 C 35.984375 28.179688 36.09375 29.507812 35.3125 30.984375 L 35.3125 30.992188 C 34.429688 32.671875 30.3125 39.867188 30.3125 39.867188 L 29.742188 40.875 L 30.328125 41.875 C 30.328125 41.875 33.398438 47.054688 43.164062 56.820312 C 52.9375 66.585938 58.117188 69.664062 58.117188 69.664062 L 59.117188 70.25 L 60.125 69.679688 C 60.125 69.679688 67.304688 65.570312 69 64.679688 C 70.476562 63.90625 71.804688 64.007812 71.960938 64.101562 C 73.34375 64.953125 88.710938 75.164062 89.65625 75.828125 C 89.6875 75.851562 90.523438 77.117188 89.304688 78.851562 L 89.296875 78.851562 C 88.5625 79.90625 86.15625 82.960938 83.648438 85.570312 C 82.390625 86.875 81.101562 88.09375 80.007812 88.914062 C 78.914062 89.734375 77.9375 89.992188 78.09375 90 C 76.390625 89.945312 72.632812 89.90625 65.734375 86.664062 C 58.835938 83.429688 48.992188 76.953125 36.015625 63.96875 C 23.046875 51 16.570312 41.15625 13.328125 34.25 C 10.09375 27.351562 10.054688 23.59375 10 21.898438 C 10.007812 22.054688 10.265625 21.070312 11.085938 19.976562 C 11.90625 18.882812 13.117188 17.585938 14.421875 16.328125 C 17.039062 13.820312 20.085938 11.414062 21.140625 10.679688 L 21.140625 10.6875 C 22.007812 10.078125 22.765625 10 23.3125 10.0625 Z M 23.3125 10.0625 "></path></g></svg>