<svg xmlns="http://www.w3.org/2000/svg" xmlns:xlink="http://www.w3.org/1999/xlink" viewBox="0 0 100 100" width="100px" height="100px"><g id="surface58378357"><path style=" stroke:none;fill-rule:nonzero;fill:rgb(24.705882%,0.392157%,81.960785%);fill-opacity:1;" d="M 18 0 C 11.554688 0 7.054688 2.195312 4.25 4.4375 C 1.445312 6.679688 0.1875 9.125 0.1875 9.125 C -0.296875 10.125 0.125 11.328125 1.125 11.8125 C 2.125 12.296875 3.328125 11.875 3.8125 10.875 C 3.8125 10.875 4.554688 9.320312 6.75 7.5625 C 8.734375 5.976562 12.007812 4.484375 16.6875 4.1875 L 50.375 89.625 C 50.570312 90.125 50.960938 90.523438 51.453125 90.742188 C 51.945312 90.953125 52.5 90.953125 53 90.75 L 97.75 73.25 C 98.789062 72.851562 99.304688 71.695312 98.90625 70.65625 C 98.507812 69.617188 97.351562 69.101562 96.3125 69.5 L 53.375 86.3125 L 19.875 1.25 C 19.570312 0.484375 18.820312 -0.0078125 18 0 Z M 73.9375 0 C 73.8125 0.03125 73.679688 0.0703125 73.5625 0.125 L 32.6875 16.4375 C 31.679688 16.84375 31.179688 17.984375 31.5625 19 L 37.5625 34.0625 L 43.3125 48.375 C 43.34375 48.5 43.382812 48.632812 43.4375 48.75 C 43.484375 48.882812 43.546875 49.007812 43.625 49.125 L 49.5625 64.125 L 55.25 78.4375 C 55.445312 78.9375 55.835938 79.335938 56.328125 79.554688 C 56.820312 79.765625 57.375 79.765625 57.875 79.5625 L 98.75 63.3125 C 99.25 63.117188 99.648438 62.726562 99.867188 62.234375 C 100.078125 61.742188 100.078125 61.1875 99.875 60.6875 L 88.0625 31.0625 C 88.039062 31.039062 88.023438 31.023438 88 31 C 87.953125 30.867188 87.890625 30.742188 87.8125 30.625 L 76.1875 1.25 C 75.859375 0.421875 75.015625 -0.09375 74.125 0 C 74.0625 0 74 0 73.9375 0 Z M 73.1875 4.625 L 83.5625 30.625 L 78.5625 32.625 L 46.375 45.375 L 41.3125 32.5625 L 36.0625 19.375 Z M 64.125 12.5625 C 64.039062 12.578125 63.953125 12.601562 63.875 12.625 C 63.765625 12.65625 63.664062 12.703125 63.5625 12.75 L 48.6875 18.6875 C 47.921875 18.859375 47.328125 19.46875 47.171875 20.242188 C 47.015625 21.007812 47.328125 21.796875 47.960938 22.257812 C 48.59375 22.71875 49.445312 22.765625 50.125 22.375 L 65 16.5 C 66.0625 16.234375 66.71875 15.171875 66.476562 14.101562 C 66.242188 13.039062 65.195312 12.351562 64.125 12.5625 Z M 85.0625 34.3125 L 95.375 60.375 L 58.25 75.125 L 53.25 62.625 L 47.875 49.125 L 50.125 48.25 Z M 76.125 42.25 C 76.039062 42.265625 75.953125 42.289062 75.875 42.3125 C 75.703125 42.351562 75.53125 42.414062 75.375 42.5 L 60.5 48.375 C 59.460938 48.789062 58.960938 49.960938 59.375 51 C 59.789062 52.039062 60.960938 52.539062 62 52.125 L 76.875 46.1875 C 77.960938 45.976562 78.679688 44.929688 78.46875 43.84375 C 78.257812 42.757812 77.210938 42.039062 76.125 42.25 Z M 38 80 C 32.5 80 28 84.5 28 90 C 28 95.5 32.5 100 38 100 C 43.5 100 48 95.5 48 90 C 48 84.5 43.5 80 38 80 Z M 38 84 C 41.335938 84 44 86.664062 44 90 C 44 93.335938 41.335938 96 38 96 C 34.664062 96 32 93.335938 32 90 C 32 86.664062 34.664062 84 38 84 Z M 38 84 "></path></g></svg>