<svg xmlns="http://www.w3.org/2000/svg" xmlns:xlink="http://www.w3.org/1999/xlink" viewBox="0 0 100 100" width="100px" height="100px"><g id="surface58376572"><path style=" stroke:none;fill-rule:nonzero;fill:rgb(24.705882%,0.392157%,81.960785%);fill-opacity:1;" d="M 37.5 11 C 33.914062 11 31 13.914062 31 17.5 C 31 19.246094 31.695312 20.832031 32.820312 22 L 18 22 C 15.792969 22 14 23.792969 14 26 L 14 34 C 14 35.101562 14.898438 36 16 36 L 18 36 L 18 79 C 18 82.308594 20.691406 85 24 85 L 77 85 C 79.757812 85 82 82.757812 82 80 L 82 36 L 84 36 C 85.101562 36 86 35.101562 86 34 L 86 26 C 86 23.792969 84.207031 22 82 22 L 67.179688 22 C 68.304688 20.832031 69 19.246094 69 17.5 C 69 13.914062 66.085938 11 62.5 11 C 59.621094 11 56.640625 12.339844 53.855469 14.855469 C 52.9375 13.734375 51.558594 13 50 13 C 48.441406 13 47.0625 13.734375 46.144531 14.855469 C 43.359375 12.339844 40.378906 11 37.5 11 Z M 37.5 12 C 40.816406 12 43.679688 13.941406 45.582031 15.683594 C 45.546875 15.742188 45.523438 15.804688 45.496094 15.867188 C 45.449219 15.964844 45.398438 16.0625 45.359375 16.167969 C 45.261719 16.40625 45.1875 16.648438 45.132812 16.898438 C 45.097656 17.039062 45.070312 17.183594 45.050781 17.332031 C 45.046875 17.363281 45.039062 17.390625 45.035156 17.421875 C 45.011719 17.613281 45 17.804688 45 18 C 45 18.269531 45.027344 18.535156 45.070312 18.792969 C 45.074219 18.835938 45.082031 18.878906 45.089844 18.917969 C 45.109375 19.039062 45.152344 19.152344 45.183594 19.265625 C 45.234375 19.453125 45.28125 19.636719 45.351562 19.8125 C 45.402344 19.945312 45.46875 20.070312 45.53125 20.195312 C 45.601562 20.34375 45.675781 20.484375 45.761719 20.621094 C 45.839844 20.746094 45.921875 20.863281 46.007812 20.976562 C 46.097656 21.097656 46.191406 21.207031 46.289062 21.316406 C 46.398438 21.441406 46.511719 21.558594 46.636719 21.671875 C 46.714844 21.746094 46.800781 21.8125 46.886719 21.878906 C 46.933594 21.921875 46.980469 21.960938 47.03125 22 L 34.351562 22 C 32.933594 21.003906 32 19.359375 32 17.5 C 32 14.46875 34.46875 12 37.5 12 Z M 62.5 12 C 65.53125 12 68 14.46875 68 17.5 C 68 19.359375 67.066406 21.003906 65.648438 22 L 52.96875 22 C 53.019531 21.960938 53.066406 21.921875 53.113281 21.878906 C 53.199219 21.8125 53.285156 21.746094 53.363281 21.671875 C 53.488281 21.558594 53.601562 21.441406 53.710938 21.316406 C 53.808594 21.207031 53.902344 21.097656 53.992188 20.976562 C 54.078125 20.863281 54.160156 20.746094 54.238281 20.621094 C 54.324219 20.484375 54.398438 20.34375 54.46875 20.195312 C 54.53125 20.070312 54.597656 19.945312 54.648438 19.8125 C 54.71875 19.636719 54.765625 19.453125 54.816406 19.269531 C 54.847656 19.152344 54.890625 19.039062 54.910156 18.921875 C 54.917969 18.878906 54.925781 18.835938 54.929688 18.796875 C 54.972656 18.535156 55 18.269531 55 18 C 55 17.804688 54.988281 17.613281 54.964844 17.425781 C 54.960938 17.390625 54.953125 17.363281 54.949219 17.332031 C 54.929688 17.183594 54.902344 17.039062 54.867188 16.898438 C 54.8125 16.648438 54.738281 16.40625 54.640625 16.167969 C 54.601562 16.0625 54.550781 15.964844 54.503906 15.867188 C 54.476562 15.804688 54.453125 15.742188 54.417969 15.683594 C 56.320312 13.941406 59.183594 12 62.5 12 Z M 50 14 C 51.359375 14 52.558594 14.683594 53.28125 15.722656 L 53.367188 15.855469 C 53.46875 16.019531 53.5625 16.191406 53.644531 16.371094 C 53.6875 16.460938 53.714844 16.554688 53.75 16.652344 C 53.796875 16.78125 53.839844 16.917969 53.875 17.054688 C 53.894531 17.136719 53.914062 17.21875 53.929688 17.304688 C 53.96875 17.53125 54 17.761719 54 18 C 54 18.265625 53.972656 18.519531 53.921875 18.769531 C 53.902344 18.867188 53.867188 18.957031 53.839844 19.046875 C 53.800781 19.199219 53.761719 19.351562 53.707031 19.492188 C 53.65625 19.609375 53.59375 19.714844 53.539062 19.824219 C 53.484375 19.929688 53.433594 20.035156 53.371094 20.132812 C 53.28125 20.273438 53.175781 20.40625 53.070312 20.53125 C 53.027344 20.582031 52.992188 20.636719 52.949219 20.683594 C 52.816406 20.824219 52.671875 20.957031 52.523438 21.078125 C 52.488281 21.105469 52.457031 21.132812 52.425781 21.160156 C 52.25 21.292969 52.066406 21.414062 51.871094 21.515625 C 51.863281 21.519531 51.851562 21.523438 51.847656 21.527344 C 51.417969 21.746094 50.945312 21.894531 50.441406 21.949219 L 50.152344 21.984375 C 50.101562 21.988281 50.054688 22 50 22 C 49.945312 22 49.898438 21.988281 49.847656 21.984375 L 49.558594 21.949219 C 48.8125 21.867188 48.132812 21.585938 47.574219 21.160156 C 47.542969 21.132812 47.511719 21.105469 47.480469 21.078125 C 47.328125 20.957031 47.183594 20.824219 47.054688 20.683594 C 47.007812 20.636719 46.972656 20.582031 46.929688 20.53125 C 46.824219 20.40625 46.71875 20.273438 46.628906 20.132812 C 46.566406 20.035156 46.515625 19.929688 46.464844 19.824219 C 46.40625 19.714844 46.34375 19.609375 46.296875 19.492188 C 46.238281 19.351562 46.199219 19.199219 46.160156 19.046875 C 46.132812 18.957031 46.097656 18.867188 46.078125 18.769531 C 46.027344 18.519531 46 18.265625 46 18 C 46 17.761719 46.03125 17.53125 46.070312 17.300781 C 46.085938 17.21875 46.105469 17.136719 46.125 17.054688 C 46.160156 16.917969 46.203125 16.78125 46.25 16.648438 C 46.285156 16.554688 46.3125 16.460938 46.355469 16.367188 C 46.4375 16.191406 46.53125 16.019531 46.636719 15.855469 L 46.726562 15.714844 C 47.449219 14.679688 48.644531 14 50 14 Z M 18 24 L 44 24 L 44 34 L 16 34 L 16 26 C 16 24.898438 16.898438 24 18 24 Z M 45 24 L 55 24 L 55 34 L 45 34 Z M 56 24 L 82 24 C 83.101562 24 84 24.898438 84 26 L 84 34 L 56 34 Z M 20 36 L 44 36 L 44 83 L 24 83 C 21.792969 83 20 81.207031 20 79 Z M 45 36 L 55 36 L 55 83 L 45 83 Z M 56 36 L 80 36 L 80 80 C 80 81.652344 78.652344 83 77 83 L 56 83 Z M 23.5 39 C 23.222656 39 23 39.222656 23 39.5 L 23 40.5 C 23 40.777344 23.222656 41 23.5 41 C 23.777344 41 24 40.777344 24 40.5 L 24 39.5 C 24 39.222656 23.777344 39 23.5 39 Z M 76.5 39 C 76.222656 39 76 39.222656 76 39.5 L 76 48.5 C 76 48.777344 76.222656 49 76.5 49 C 76.777344 49 77 48.777344 77 48.5 L 77 39.5 C 77 39.222656 76.777344 39 76.5 39 Z M 23.5 43 C 23.222656 43 23 43.222656 23 43.5 L 23 47.5 C 23 47.777344 23.222656 48 23.5 48 C 23.777344 48 24 47.777344 24 47.5 L 24 43.5 C 24 43.222656 23.777344 43 23.5 43 Z M 23.5 55 C 23.222656 55 23 55.222656 23 55.5 L 23 78.5 C 23 79.328125 23.671875 80 24.5 80 L 40.5 80 C 40.777344 80 41 79.777344 41 79.5 C 41 79.222656 40.777344 79 40.5 79 L 24.5 79 C 24.222656 79 24 78.773438 24 78.5 L 24 55.5 C 24 55.222656 23.777344 55 23.5 55 Z M 76.5 55 C 76.222656 55 76 55.222656 76 55.5 L 76 57.5 C 76 57.777344 76.222656 58 76.5 58 C 76.777344 58 77 57.777344 77 57.5 L 77 55.5 C 77 55.222656 76.777344 55 76.5 55 Z M 76.5 60 C 76.222656 60 76 60.222656 76 60.5 L 76 65.5 C 76 65.777344 76.222656 66 76.5 66 C 76.777344 66 77 65.777344 77 65.5 L 77 60.5 C 77 60.222656 76.777344 60 76.5 60 Z M 76.5 68 C 76.222656 68 76 68.222656 76 68.5 L 76 78.5 C 76 78.773438 75.777344 79 75.5 79 L 59.5 79 C 59.222656 79 59 79.222656 59 79.5 C 59 79.777344 59.222656 80 59.5 80 L 75.5 80 C 76.328125 80 77 79.328125 77 78.5 L 77 68.5 C 77 68.222656 76.777344 68 76.5 68 Z M 76.5 68 "></path></g></svg>