<svg xmlns="http://www.w3.org/2000/svg" xmlns:xlink="http://www.w3.org/1999/xlink" viewBox="0 0 100 100" width="100px" height="100px"><g id="surface58377844"><path style=" stroke:none;fill-rule:nonzero;fill:rgb(24.705882%,0.392157%,81.960785%);fill-opacity:1;" d="M 17 18 C 13.699219 18 11 20.695312 11 24 L 11 71 C 11 72.089844 11.90625 73 13 73 L 20.058594 73 C 20.554688 77.496094 24.371094 81 29 81 C 33.625 81 37.441406 77.496094 37.941406 73 L 64.058594 73 C 64.558594 77.496094 68.375 81 73 81 C 77.625 81 81.441406 77.496094 81.941406 73 L 85.003906 73 C 88.304688 73 91 70.300781 91 67 L 91 48.25 C 91 48.25 91 48.246094 91 48.246094 C 90.996094 47.265625 90.753906 46.292969 90.289062 45.421875 L 83.21875 32.296875 C 81.839844 29.683594 79.125 28.003906 76.160156 27.996094 C 76.15625 27.996094 76.15625 27.996094 76.15625 27.996094 L 60 27.996094 L 60 23.996094 C 60 20.695312 57.300781 17.996094 54 17.996094 Z M 17 20 L 54 20 C 56.21875 20 58 21.777344 58 24 L 58 45 L 13 45 L 13 33 L 43.5 33 C 43.679688 33.003906 43.847656 32.90625 43.9375 32.753906 C 44.03125 32.597656 44.03125 32.402344 43.9375 32.246094 C 43.847656 32.09375 43.679688 31.996094 43.5 32 L 13 32 L 13 23.996094 C 13 21.777344 14.78125 19.996094 17 19.996094 Z M 59 30 L 76.15625 30 C 78.371094 30.003906 80.414062 31.265625 81.453125 33.238281 C 81.453125 33.242188 81.457031 33.246094 81.460938 33.25 L 88.527344 46.375 C 88.835938 46.949219 88.996094 47.59375 89 48.253906 L 89 53 L 69.5 53 C 68.664062 53 68 52.335938 68 51.5 L 68 36.5 C 68 35.664062 68.664062 35 69.5 35 L 74.5 35 C 74.679688 35.003906 74.847656 34.90625 74.9375 34.753906 C 75.03125 34.597656 75.03125 34.402344 74.9375 34.246094 C 74.847656 34.09375 74.679688 33.996094 74.5 34 L 69.5 34 C 68.125 34 67 35.125 67 36.5 L 67 51.5 C 67 52.875 68.125 54 69.5 54 L 89 54 L 89 61 L 85.5 61 C 84.125 61 83 62.125 83 63.5 L 83 65.5 C 83 66.875 84.125 68 85.5 68 L 88.859375 68 C 88.417969 69.726562 86.875 71 85 71 L 81.941406 71 C 81.441406 66.503906 77.625 63 73 63 C 68.375 63 64.558594 66.503906 64.058594 71 L 59 71 L 59 45.578125 C 59.007812 45.527344 59.007812 45.472656 59 45.417969 Z M 46.5 32 C 46.320312 31.996094 46.152344 32.09375 46.0625 32.246094 C 45.96875 32.402344 45.96875 32.597656 46.0625 32.753906 C 46.152344 32.90625 46.320312 33.003906 46.5 33 L 51.5 33 C 51.679688 33.003906 51.847656 32.90625 51.9375 32.753906 C 52.03125 32.597656 52.03125 32.402344 51.9375 32.246094 C 51.847656 32.09375 51.679688 31.996094 51.5 32 Z M 54.5 32 C 54.320312 31.996094 54.152344 32.09375 54.0625 32.246094 C 53.96875 32.402344 53.96875 32.597656 54.0625 32.753906 C 54.152344 32.90625 54.320312 33.003906 54.5 33 L 55.5 33 C 55.679688 33.003906 55.847656 32.90625 55.9375 32.753906 C 56.03125 32.597656 56.03125 32.402344 55.9375 32.246094 C 55.847656 32.09375 55.679688 31.996094 55.5 32 Z M 76.5 34 C 76.320312 33.996094 76.152344 34.09375 76.0625 34.246094 C 75.96875 34.402344 75.96875 34.597656 76.0625 34.753906 C 76.152344 34.90625 76.320312 35.003906 76.5 35 L 77.5 35 C 77.679688 35.003906 77.847656 34.90625 77.9375 34.753906 C 78.03125 34.597656 78.03125 34.402344 77.9375 34.246094 C 77.847656 34.09375 77.679688 33.996094 77.5 34 Z M 79.5 34 C 79.320312 33.996094 79.152344 34.09375 79.0625 34.246094 C 78.96875 34.402344 78.96875 34.597656 79.0625 34.753906 C 79.152344 34.90625 79.320312 35.003906 79.5 35 L 80.5 35 C 80.679688 35.003906 80.847656 34.90625 80.9375 34.753906 C 81.03125 34.597656 81.03125 34.402344 80.9375 34.246094 C 80.847656 34.09375 80.679688 33.996094 80.5 34 Z M 13 46 L 58 46 L 58 57 L 13 57 Z M 13 58 L 58 58 L 58 71 L 37.941406 71 C 37.441406 66.503906 33.625 63 29 63 C 24.375 63 20.558594 66.503906 20.058594 71 L 13 71 L 13 68 L 16.5 68 C 17.875 68 19 66.875 19 65.5 L 19 63.5 C 19 62.125 17.875 61 16.5 61 L 13 61 Z M 13 62 L 16.5 62 C 17.335938 62 18 62.664062 18 63.5 L 18 65.5 C 18 66.335938 17.335938 67 16.5 67 L 13 67 Z M 85.5 62 L 89 62 L 89 67 L 85.5 67 C 84.664062 67 84 66.335938 84 65.5 L 84 63.5 C 84 62.664062 84.664062 62 85.5 62 Z M 29 64 C 33.425781 64 37 67.574219 37 72 C 37 76.425781 33.425781 80 29 80 C 24.574219 80 21 76.425781 21 72 C 21 67.574219 24.574219 64 29 64 Z M 73 64 C 77.425781 64 81 67.574219 81 72 C 81 76.425781 77.425781 80 73 80 C 68.574219 80 65 76.425781 65 72 C 65 67.574219 68.574219 64 73 64 Z M 29 68 C 27.707031 68 26.675781 68.503906 26 69.261719 C 25.328125 70.019531 25 71.015625 25 72 C 25 72.984375 25.328125 73.980469 26 74.738281 C 26.675781 75.496094 27.707031 76 29 76 C 30.292969 76 31.324219 75.496094 32 74.738281 C 32.671875 73.980469 33 72.984375 33 72 C 33 71.015625 32.671875 70.019531 32 69.261719 C 31.324219 68.503906 30.292969 68 29 68 Z M 73 68 C 71.707031 68 70.675781 68.503906 70 69.261719 C 69.328125 70.019531 69 71.015625 69 72 C 69 72.984375 69.328125 73.980469 70 74.738281 C 70.675781 75.496094 71.707031 76 73 76 C 74.292969 76 75.324219 75.496094 76 74.738281 C 76.671875 73.980469 77 72.984375 77 72 C 77 71.015625 76.671875 70.019531 76 69.261719 C 75.324219 68.503906 74.292969 68 73 68 Z M 29 69 C 30.042969 69 30.761719 69.371094 31.25 69.925781 C 31.742188 70.480469 32 71.234375 32 72 C 32 72.765625 31.742188 73.519531 31.25 74.074219 C 30.761719 74.628906 30.042969 75 29 75 C 27.957031 75 27.238281 74.628906 26.75 74.074219 C 26.257812 73.519531 26 72.765625 26 72 C 26 71.234375 26.257812 70.480469 26.75 69.925781 C 27.238281 69.371094 27.957031 69 29 69 Z M 73 69 C 74.042969 69 74.761719 69.371094 75.25 69.925781 C 75.742188 70.480469 76 71.234375 76 72 C 76 72.765625 75.742188 73.519531 75.25 74.074219 C 74.761719 74.628906 74.042969 75 73 75 C 71.957031 75 71.238281 74.628906 70.75 74.074219 C 70.257812 73.519531 70 72.765625 70 72 C 70 71.234375 70.257812 70.480469 70.75 69.925781 C 71.238281 69.371094 71.957031 69 73 69 Z M 73 69 "></path></g></svg>