<svg xmlns="http://www.w3.org/2000/svg" xmlns:xlink="http://www.w3.org/1999/xlink" viewBox="0 0 100 100" width="100px" height="100px"><g id="surface58378106"><path style=" stroke:none;fill-rule:nonzero;fill:rgb(24.705882%,0.392157%,81.960785%);fill-opacity:1;" d="M 24 15 C 19.59375 15 16 18.59375 16 23 L 16 27 C 16 27.085938 16.011719 27.171875 16.035156 27.253906 L 16.019531 27.253906 L 13.015625 43.316406 L 13 43.5 C 13 46.011719 14.695312 48.132812 17 48.789062 L 17 77 C 17 81.40625 20.59375 85 25 85 L 76 85 C 80.40625 85 84 81.40625 84 77 L 84 48.765625 C 84.886719 48.519531 85.699219 48.0625 86.367188 47.394531 C 87.417969 46.339844 87.996094 44.921875 87.988281 43.402344 L 84.972656 27.226562 C 84.992188 27.152344 85 27.074219 85 27 L 85 23 C 85 18.59375 81.40625 15 77 15 Z M 24 17 L 77 17 C 80.324219 17 83 19.675781 83 23 L 83 26 L 18 26 L 18 23 C 18 19.675781 20.675781 17 24 17 Z M 25.5 19 C 24.707031 19 24.050781 19.316406 23.625 19.792969 C 23.203125 20.269531 23 20.890625 23 21.5 C 23 22.109375 23.203125 22.730469 23.625 23.207031 C 24.050781 23.683594 24.707031 24 25.5 24 C 26.292969 24 26.949219 23.683594 27.375 23.207031 C 27.796875 22.730469 28 22.109375 28 21.5 C 28 20.890625 27.796875 20.269531 27.375 19.792969 C 26.949219 19.316406 26.292969 19 25.5 19 Z M 32.5 19 C 31.707031 19 31.050781 19.316406 30.625 19.792969 C 30.203125 20.269531 30 20.890625 30 21.5 C 30 22.109375 30.203125 22.730469 30.625 23.207031 C 31.050781 23.683594 31.707031 24 32.5 24 C 33.292969 24 33.949219 23.683594 34.375 23.207031 C 34.796875 22.730469 35 22.109375 35 21.5 C 35 20.890625 34.796875 20.269531 34.375 19.792969 C 33.949219 19.316406 33.292969 19 32.5 19 Z M 39.5 19 C 38.707031 19 38.050781 19.316406 37.625 19.792969 C 37.203125 20.269531 37 20.890625 37 21.5 C 37 22.109375 37.203125 22.730469 37.625 23.207031 C 38.050781 23.683594 38.707031 24 39.5 24 C 40.292969 24 40.949219 23.683594 41.375 23.207031 C 41.796875 22.730469 42 22.109375 42 21.5 C 42 20.890625 41.796875 20.269531 41.375 19.792969 C 40.949219 19.316406 40.292969 19 39.5 19 Z M 25.5 20 C 26.042969 20 26.386719 20.183594 26.625 20.457031 C 26.867188 20.730469 27 21.109375 27 21.5 C 27 21.890625 26.867188 22.269531 26.625 22.542969 C 26.386719 22.816406 26.042969 23 25.5 23 C 24.957031 23 24.613281 22.816406 24.375 22.542969 C 24.132812 22.269531 24 21.890625 24 21.5 C 24 21.109375 24.132812 20.730469 24.375 20.457031 C 24.613281 20.183594 24.957031 20 25.5 20 Z M 32.5 20 C 33.042969 20 33.386719 20.183594 33.625 20.457031 C 33.867188 20.730469 34 21.109375 34 21.5 C 34 21.890625 33.867188 22.269531 33.625 22.542969 C 33.386719 22.816406 33.042969 23 32.5 23 C 31.957031 23 31.613281 22.816406 31.375 22.542969 C 31.132812 22.269531 31 21.890625 31 21.5 C 31 21.109375 31.132812 20.730469 31.375 20.457031 C 31.613281 20.183594 31.957031 20 32.5 20 Z M 39.5 20 C 40.042969 20 40.386719 20.183594 40.625 20.457031 C 40.867188 20.730469 41 21.109375 41 21.5 C 41 21.890625 40.867188 22.269531 40.625 22.542969 C 40.386719 22.816406 40.042969 23 39.5 23 C 38.957031 23 38.613281 22.816406 38.375 22.542969 C 38.132812 22.269531 38 21.890625 38 21.5 C 38 21.109375 38.132812 20.730469 38.375 20.457031 C 38.613281 20.183594 38.957031 20 39.5 20 Z M 17.917969 28 L 22 28 L 22 43 L 15.109375 43 Z M 23 28 L 30 28 L 30 43 L 23 43 Z M 31 28 L 38 28 L 38 43 L 31 43 Z M 39 28 L 46 28 L 46 43 L 39 43 Z M 47 28 L 54 28 L 54 43 L 47 43 Z M 55 28 L 62 28 L 62 43 L 55 43 Z M 63 28 L 70 28 L 70 43 L 63 43 Z M 71 28 L 78 28 L 78 43 L 71 43 Z M 79 28 L 83.082031 28 L 85.894531 43 L 79 43 Z M 15.054688 44 L 21.949219 44 C 21.707031 45.699219 20.265625 47 18.5 47 C 18.328125 47 18.164062 46.972656 18 46.949219 C 17.792969 46.917969 17.59375 46.871094 17.398438 46.804688 C 17.398438 46.804688 17.394531 46.808594 17.394531 46.804688 L 17.390625 46.804688 C 17.011719 46.679688 16.664062 46.488281 16.351562 46.246094 C 16.332031 46.230469 16.316406 46.214844 16.292969 46.199219 C 16.160156 46.089844 16.035156 45.972656 15.917969 45.847656 C 15.886719 45.8125 15.855469 45.769531 15.824219 45.730469 C 15.730469 45.621094 15.640625 45.507812 15.558594 45.382812 C 15.496094 45.285156 15.445312 45.179688 15.390625 45.078125 C 15.351562 45 15.308594 44.925781 15.273438 44.84375 C 15.164062 44.578125 15.097656 44.292969 15.054688 44 Z M 23.046875 44 L 29.953125 44 C 29.707031 45.699219 28.265625 47 26.5 47 C 24.734375 47 23.292969 45.699219 23.046875 44 Z M 31.046875 44 L 37.953125 44 C 37.707031 45.699219 36.265625 47 34.5 47 C 32.734375 47 31.292969 45.699219 31.046875 44 Z M 39.046875 44 L 45.953125 44 C 45.707031 45.699219 44.265625 47 42.5 47 C 40.734375 47 39.292969 45.699219 39.046875 44 Z M 47.046875 44 L 53.953125 44 C 53.707031 45.699219 52.265625 47 50.5 47 C 48.734375 47 47.292969 45.699219 47.046875 44 Z M 55.046875 44 L 61.953125 44 C 61.707031 45.699219 60.265625 47 58.5 47 C 56.734375 47 55.292969 45.699219 55.046875 44 Z M 63.046875 44 L 69.953125 44 C 69.707031 45.699219 68.265625 47 66.5 47 C 64.734375 47 63.292969 45.699219 63.046875 44 Z M 71.046875 44 L 77.953125 44 C 77.707031 45.699219 76.265625 47 74.5 47 C 72.734375 47 71.292969 45.699219 71.046875 44 Z M 79.046875 44 L 85.933594 44 C 85.816406 44.753906 85.488281 45.445312 84.953125 45.980469 C 84.695312 46.242188 84.402344 46.445312 84.085938 46.605469 C 84.070312 46.613281 84.054688 46.625 84.039062 46.632812 C 83.886719 46.703125 83.734375 46.765625 83.578125 46.816406 C 83.550781 46.824219 83.523438 46.832031 83.5 46.839844 C 83.335938 46.886719 83.167969 46.925781 83 46.953125 C 82.832031 46.976562 82.671875 47 82.5 47 C 80.734375 47 79.292969 45.699219 79.046875 44 Z M 30.5 45.464844 C 31.238281 46.953125 32.734375 48 34.5 48 C 36.265625 48 37.761719 46.953125 38.5 45.464844 C 39.238281 46.953125 40.734375 48 42.5 48 C 44.265625 48 45.761719 46.953125 46.5 45.464844 C 47.238281 46.953125 48.734375 48 50.5 48 C 52.265625 48 53.761719 46.953125 54.5 45.464844 C 55.238281 46.953125 56.734375 48 58.5 48 C 59.03125 48 59.53125 47.894531 60 47.722656 L 60 80 L 25.5 80 C 23.5625 80 22 78.4375 22 76.5 L 22 61.5 C 22.003906 61.320312 21.90625 61.152344 21.753906 61.0625 C 21.597656 60.96875 21.402344 60.96875 21.246094 61.0625 C 21.09375 61.152344 20.996094 61.320312 21 61.5 L 21 76.5 C 21 78.980469 23.019531 81 25.5 81 L 60.5 81 C 60.777344 81 61 80.777344 61 80.5 L 61 47.207031 C 61.632812 46.761719 62.152344 46.167969 62.5 45.464844 C 62.636719 45.746094 62.8125 46.003906 63 46.246094 L 63 51.5 C 62.996094 51.679688 63.09375 51.847656 63.246094 51.9375 C 63.402344 52.03125 63.597656 52.03125 63.753906 51.9375 C 63.90625 51.847656 64.003906 51.679688 64 51.5 L 64 47.207031 C 64.710938 47.699219 65.566406 48 66.5 48 C 68.265625 48 69.761719 46.953125 70.5 45.464844 C 71.238281 46.953125 72.734375 48 74.5 48 C 76.25 48 77.757812 46.984375 78.5 45.519531 C 78.648438 45.808594 78.824219 46.078125 79.027344 46.328125 C 79.007812 46.382812 79 46.441406 79 46.5 L 79 76.5 C 79 78.4375 77.4375 80 75.5 80 L 64 80 L 64 58.5 C 64.003906 58.320312 63.90625 58.152344 63.753906 58.0625 C 63.597656 57.96875 63.402344 57.96875 63.246094 58.0625 C 63.09375 58.152344 62.996094 58.320312 63 58.5 L 63 80.5 C 63 80.777344 63.222656 81 63.5 81 L 75.5 81 C 77.980469 81 80 78.980469 80 76.5 L 80 47.238281 C 80.582031 47.628906 81.269531 47.867188 82 47.949219 L 82 77 C 82 80.324219 79.324219 83 76 83 L 25 83 C 21.675781 83 19 80.324219 19 77 L 19 47.949219 C 20.535156 47.777344 21.828125 46.839844 22.5 45.519531 C 23.242188 46.984375 24.75 48 26.5 48 C 28.265625 48 29.761719 46.953125 30.5 45.46875 Z M 21.492188 48.992188 C 21.359375 48.996094 21.234375 49.050781 21.140625 49.144531 C 21.046875 49.238281 20.996094 49.367188 21 49.5 L 21 50.5 C 20.996094 50.679688 21.09375 50.847656 21.246094 50.9375 C 21.402344 51.03125 21.597656 51.03125 21.753906 50.9375 C 21.90625 50.847656 22.003906 50.679688 22 50.5 L 22 49.5 C 22.003906 49.363281 21.949219 49.234375 21.855469 49.136719 C 21.757812 49.042969 21.628906 48.988281 21.492188 48.992188 Z M 21.492188 52.992188 C 21.359375 52.996094 21.234375 53.050781 21.140625 53.144531 C 21.046875 53.238281 20.996094 53.367188 21 53.5 L 21 58.5 C 20.996094 58.679688 21.09375 58.847656 21.246094 58.9375 C 21.402344 59.03125 21.597656 59.03125 21.753906 58.9375 C 21.90625 58.847656 22.003906 58.679688 22 58.5 L 22 53.5 C 22.003906 53.363281 21.949219 53.234375 21.855469 53.136719 C 21.757812 53.042969 21.628906 52.988281 21.492188 52.992188 Z M 63.492188 52.992188 C 63.359375 52.996094 63.234375 53.050781 63.140625 53.144531 C 63.046875 53.238281 62.996094 53.367188 63 53.5 L 63 55.5 C 62.996094 55.679688 63.09375 55.847656 63.246094 55.9375 C 63.402344 56.03125 63.597656 56.03125 63.753906 55.9375 C 63.90625 55.847656 64.003906 55.679688 64 55.5 L 64 53.5 C 64.003906 53.363281 63.949219 53.234375 63.855469 53.136719 C 63.757812 53.042969 63.628906 52.988281 63.492188 52.992188 Z M 41 55 C 40.691406 55 40.398438 55.144531 40.207031 55.390625 C 40.019531 55.636719 39.953125 55.957031 40.035156 56.253906 L 36.441406 59.820312 L 31.503906 60.597656 C 31.230469 60.640625 31.046875 60.894531 31.085938 61.164062 L 31.804688 66.070312 C 31.820312 66.203125 31.894531 66.324219 32 66.402344 C 32.109375 66.480469 32.242188 66.515625 32.375 66.496094 L 52.078125 63.402344 C 52.347656 63.359375 52.535156 63.105469 52.496094 62.835938 L 51.777344 57.929688 C 51.742188 57.6875 51.539062 57.507812 51.296875 57.5 C 51.265625 57.5 51.234375 57.5 51.207031 57.503906 L 46.617188 58.226562 L 42 55.9375 C 41.964844 55.410156 41.527344 55 41 55 Z M 41.554688 56.832031 L 44.910156 58.496094 L 38.128906 59.558594 L 40.738281 56.964844 C 40.824219 56.988281 40.910156 57 41 57 C 41.195312 57 41.390625 56.941406 41.554688 56.832031 Z M 50.859375 58.570312 L 51.433594 62.492188 L 32.722656 65.425781 L 32.148438 61.507812 Z M 76 60 C 75.375 60 74.84375 60.253906 74.5 60.636719 C 74.160156 61.019531 74 61.515625 74 62 C 74 62.484375 74.160156 62.980469 74.5 63.363281 C 74.84375 63.746094 75.375 64 76 64 C 76.625 64 77.15625 63.746094 77.5 63.363281 C 77.839844 62.980469 78 62.484375 78 62 C 78 61.515625 77.839844 61.019531 77.5 60.636719 C 77.15625 60.253906 76.625 60 76 60 Z M 76 61 C 76.375 61 76.59375 61.121094 76.75 61.300781 C 76.910156 61.480469 77 61.734375 77 62 C 77 62.265625 76.910156 62.519531 76.75 62.699219 C 76.59375 62.878906 76.375 63 76 63 C 75.625 63 75.40625 62.878906 75.25 62.699219 C 75.089844 62.519531 75 62.265625 75 62 C 75 61.734375 75.089844 61.480469 75.25 61.300781 C 75.40625 61.121094 75.625 61 76 61 Z M 76 61 "></path></g></svg>