<svg xmlns="http://www.w3.org/2000/svg" fill="#000000" viewBox="0 0 100 100" width="100px" height="100px"><path d="M 17 17.998047 C 13.698375 17.998047 11 20.696421 11 23.998047 L 11 70.998047 C 11 72.09111 11.906937 72.998047 13 72.998047 L 20.058594 72.998047 C 20.556486 77.494141 24.372793 81 29 81 C 33.626543 81 37.442633 77.495165 37.941406 73 L 59 73 L 64.058594 73 C 64.557367 77.495165 68.373457 81 73 81 C 77.626543 81 81.442633 77.495165 81.941406 73 L 85.001953 73 C 88.303579 73 90.998804 70.300947 91 67 L 91 48.25 A 1.0001 1.0001 0 0 0 91 48.246094 C 90.9964 47.264279 90.755301 46.294014 90.287109 45.423828 L 83.21875 32.298828 C 81.839356 29.684832 79.126266 28.003768 76.158203 27.998047 A 1.0001 1.0001 0 0 0 76.15625 27.998047 L 60 27.998047 L 60 23.998047 C 60 20.696421 57.301625 17.998047 54 17.998047 L 17 17.998047 z M 17 19.998047 L 54 19.998047 C 56.220375 19.998047 58 21.777672 58 23.998047 L 58 28.998047 A 1.0001 1.0001 0 0 0 58 29 L 58 45 L 13 45 L 13 33 L 43.5 33 A 0.50005 0.50005 0 1 0 43.5 32 L 13 32 L 13 23.998047 C 13 21.777672 14.779625 19.998047 17 19.998047 z M 59 29.998047 L 76.15625 29.998047 C 78.372117 30.003047 80.415376 31.265872 81.453125 33.238281 A 1.0001 1.0001 0 0 0 81.458984 33.248047 L 88.527344 46.373047 C 88.83652 46.948401 88.99759 47.594365 89 48.253906 L 89 53 L 69.5 53 C 68.664985 53 68 52.335015 68 51.5 L 68 36.5 C 68 35.664985 68.664985 35 69.5 35 L 74.5 35 A 0.50005 0.50005 0 1 0 74.5 34 L 69.5 34 C 68.125015 34 67 35.125015 67 36.5 L 67 51.5 C 67 52.874985 68.125015 54 69.5 54 L 89 54 L 89 61 L 85.5 61 C 84.125015 61 83 62.125015 83 63.5 L 83 65.5 C 83 66.874985 84.125015 68 85.5 68 L 88.861328 68 C 88.418812 69.728436 86.874359 71 85.001953 71 L 81.941406 71 C 81.442633 66.504835 77.626543 63 73 63 C 68.373457 63 64.557367 66.504835 64.058594 71 L 59 71 L 59 45.580078 A 0.50005 0.50005 0 0 0 59 45.417969 L 59 29.998047 z M 46.5 32 A 0.50005 0.50005 0 1 0 46.5 33 L 51.5 33 A 0.50005 0.50005 0 1 0 51.5 32 L 46.5 32 z M 54.5 32 A 0.50005 0.50005 0 1 0 54.5 33 L 55.5 33 A 0.50005 0.50005 0 1 0 55.5 32 L 54.5 32 z M 76.5 34 A 0.50005 0.50005 0 1 0 76.5 35 L 77.5 35 A 0.50005 0.50005 0 1 0 77.5 34 L 76.5 34 z M 79.5 34 A 0.50005 0.50005 0 1 0 79.5 35 L 80.5 35 A 0.50005 0.50005 0 1 0 80.5 34 L 79.5 34 z M 13 46 L 58 46 L 58 57 L 13 57 L 13 46 z M 13 58 L 58 58 L 58 71 L 37.941406 71 C 37.442633 66.504835 33.626543 63 29 63 C 24.37412 63 20.558247 66.50381 20.058594 70.998047 L 13 70.998047 L 13 68 L 16.5 68 C 17.874985 68 19 66.874985 19 65.5 L 19 63.5 C 19 62.125015 17.874985 61 16.5 61 L 13 61 L 13 58 z M 13 62 L 16.5 62 C 17.335015 62 18 62.664985 18 63.5 L 18 65.5 C 18 66.335015 17.335015 67 16.5 67 L 13 67 L 13 62 z M 85.5 62 L 89 62 L 89 67 L 85.5 67 C 84.664985 67 84 66.335015 84 65.5 L 84 63.5 C 84 62.664985 84.664985 62 85.5 62 z M 29 64 C 33.424204 64 37 67.575799 37 72 C 37 76.424201 33.424204 80 29 80 C 24.575796 80 21 76.424201 21 72 C 21 67.575799 24.575796 64 29 64 z M 73 64 C 77.424204 64 81 67.575799 81 72 C 81 76.424201 77.424204 80 73 80 C 68.575796 80 65 76.424201 65 72 C 65 67.575799 68.575796 64 73 64 z M 29 68 C 27.708334 68 26.676923 68.502378 26.001953 69.261719 C 25.326984 70.02106 25 71.013889 25 72 C 25 72.986111 25.326984 73.97894 26.001953 74.738281 C 26.676923 75.497622 27.708334 76 29 76 C 30.291666 76 31.323077 75.497622 31.998047 74.738281 C 32.673016 73.97894 33 72.986111 33 72 C 33 71.013889 32.673016 70.02106 31.998047 69.261719 C 31.323077 68.502378 30.291666 68 29 68 z M 73 68 C 71.708334 68 70.676923 68.502378 70.001953 69.261719 C 69.326984 70.02106 69 71.013889 69 72 C 69 72.986111 69.326984 73.97894 70.001953 74.738281 C 70.676923 75.497622 71.708334 76 73 76 C 74.291666 76 75.323077 75.497622 75.998047 74.738281 C 76.673016 73.97894 77 72.986111 77 72 C 77 71.013889 76.673016 70.02106 75.998047 69.261719 C 75.323077 68.502378 74.291666 68 73 68 z M 29 69 C 30.041666 69 30.760256 69.372622 31.251953 69.925781 C 31.74365 70.47894 32 71.236111 32 72 C 32 72.763889 31.74365 73.52106 31.251953 74.074219 C 30.760256 74.627378 30.041666 75 29 75 C 27.958334 75 27.239744 74.627378 26.748047 74.074219 C 26.25635 73.52106 26 72.763889 26 72 C 26 71.236111 26.25635 70.47894 26.748047 69.925781 C 27.239744 69.372622 27.958334 69 29 69 z M 73 69 C 74.041666 69 74.760256 69.372622 75.251953 69.925781 C 75.74365 70.47894 76 71.236111 76 72 C 76 72.763889 75.74365 73.52106 75.251953 74.074219 C 74.760256 74.627378 74.041666 75 73 75 C 71.958334 75 71.239744 74.627378 70.748047 74.074219 C 70.25635 73.52106 70 72.763889 70 72 C 70 71.236111 70.25635 70.47894 70.748047 69.925781 C 71.239744 69.372622 71.958334 69 73 69 z"></path></svg>