<svg xmlns="http://www.w3.org/2000/svg" fill="#000000" viewBox="0 0 100 100" width="100px" height="100px"><path d="M 37.5 11 C 33.916 11 31 13.916 31 17.5 C 31 19.246313 31.69576 20.830925 32.820312 22 L 18 22 C 15.794 22 14 23.794 14 26 L 14 34 C 14 35.103 14.897 36 16 36 L 18 36 L 18 79 C 18 82.309 20.691 85 24 85 L 77 85 C 79.757 85 82 82.757 82 80 L 82 36 L 84 36 C 85.103 36 86 35.103 86 34 L 86 26 C 86 23.794 84.206 22 82 22 L 67.179688 22 C 68.30424 20.830925 69 19.246313 69 17.5 C 69 13.916 66.084 11 62.5 11 C 59.619324 11 56.641628 12.341665 53.855469 14.857422 C 52.937833 13.734031 51.560284 13 50 13 C 48.439716 13 47.062167 13.734031 46.144531 14.857422 C 43.358372 12.3408 40.380676 11 37.5 11 z M 37.5 12 C 40.817 12 43.681078 13.940641 45.580078 15.681641 C 45.548411 15.741474 45.525249 15.804382 45.496094 15.865234 C 45.448204 15.965795 45.398651 16.063865 45.357422 16.167969 C 45.262159 16.406007 45.188176 16.649866 45.130859 16.898438 C 45.098667 17.040556 45.070544 17.183693 45.050781 17.330078 C 45.046435 17.361476 45.038894 17.392339 45.035156 17.423828 C 45.013248 17.613407 45 17.804644 45 18 C 45 18.271316 45.026563 18.53521 45.068359 18.794922 C 45.075098 18.836597 45.080118 18.878585 45.087891 18.919922 C 45.110263 19.039511 45.152843 19.151125 45.183594 19.267578 C 45.23261 19.452398 45.282322 19.636513 45.351562 19.8125 C 45.403647 19.945595 45.468357 20.069974 45.53125 20.197266 C 45.603205 20.342166 45.67635 20.484465 45.761719 20.621094 C 45.838532 20.744825 45.920816 20.862264 46.007812 20.978516 C 46.096654 21.096426 46.19016 21.208809 46.289062 21.318359 C 46.399535 21.441777 46.512707 21.559929 46.634766 21.671875 C 46.715636 21.745347 46.801019 21.812699 46.886719 21.880859 C 46.935439 21.920035 46.981061 21.962635 47.03125 22 L 34.349609 22 C 32.931656 21.004061 32 19.360011 32 17.5 C 32 14.468 34.467 12 37.5 12 z M 62.5 12 C 65.533 12 68 14.468 68 17.5 C 68 19.360011 67.068344 21.004061 65.650391 22 L 52.96875 22 C 53.018939 21.962635 53.064561 21.920035 53.113281 21.880859 C 53.198981 21.812699 53.284364 21.745347 53.365234 21.671875 C 53.487293 21.559929 53.600465 21.441777 53.710938 21.318359 C 53.80984 21.208809 53.903346 21.096426 53.992188 20.978516 C 54.079184 20.862264 54.161468 20.744825 54.238281 20.621094 C 54.32365 20.484465 54.396795 20.342166 54.46875 20.197266 C 54.531643 20.069974 54.596353 19.945595 54.648438 19.8125 C 54.717678 19.636513 54.76739 19.452398 54.816406 19.267578 C 54.847157 19.151125 54.889737 19.039511 54.912109 18.919922 C 54.919882 18.878585 54.924902 18.836597 54.931641 18.794922 C 54.973437 18.53521 55 18.271316 55 18 C 55 17.804644 54.986752 17.613407 54.964844 17.423828 C 54.961106 17.392339 54.953565 17.361476 54.949219 17.330078 C 54.929456 17.183693 54.901333 17.040556 54.869141 16.898438 C 54.811824 16.649866 54.737841 16.406007 54.642578 16.167969 C 54.601349 16.063865 54.551796 15.965795 54.503906 15.865234 C 54.474751 15.804382 54.451589 15.741474 54.419922 15.681641 C 56.318922 13.940641 59.183 12 62.5 12 z M 50 14 C 51.358835 14 52.558051 14.684282 53.28125 15.722656 L 53.365234 15.855469 C 53.469991 16.019228 53.564131 16.190343 53.644531 16.369141 C 53.686233 16.46101 53.715487 16.556165 53.75 16.650391 C 53.797823 16.782694 53.841177 16.91636 53.875 17.054688 C 53.895474 17.136761 53.914552 17.219616 53.929688 17.302734 C 53.970016 17.530226 54 17.761088 54 18 C 54 18.264354 53.971021 18.521341 53.921875 18.771484 C 53.902991 18.866857 53.867424 18.955938 53.841797 19.048828 C 53.800683 19.198877 53.76271 19.349689 53.705078 19.492188 C 53.657787 19.608256 53.594849 19.715738 53.537109 19.826172 C 53.483195 19.930056 53.433605 20.036434 53.371094 20.134766 C 53.280941 20.275344 53.177174 20.405247 53.070312 20.533203 C 53.029039 20.583127 52.990869 20.635744 52.947266 20.683594 C 52.815892 20.82614 52.672681 20.957676 52.521484 21.080078 C 52.489323 21.106463 52.458766 21.134765 52.425781 21.160156 C 52.250952 21.292842 52.065597 21.412463 51.869141 21.515625 C 51.861431 21.519745 51.853442 21.523273 51.845703 21.527344 C 51.419674 21.747491 50.946709 21.895079 50.443359 21.951172 L 50.154297 21.984375 C 50.101918 21.986417 50.052871 22 50 22 C 49.947129 22 49.898082 21.986417 49.845703 21.984375 L 49.556641 21.951172 C 48.811047 21.868083 48.133561 21.584667 47.574219 21.160156 C 47.541234 21.134765 47.510677 21.106463 47.478516 21.080078 C 47.327319 20.957676 47.184108 20.82614 47.052734 20.683594 C 47.009131 20.635744 46.970961 20.583127 46.929688 20.533203 C 46.822826 20.405247 46.719059 20.275344 46.628906 20.134766 C 46.566395 20.036434 46.516805 19.930056 46.462891 19.826172 C 46.405151 19.715738 46.342213 19.608256 46.294922 19.492188 C 46.23729 19.349689 46.199317 19.198877 46.158203 19.048828 C 46.132576 18.955938 46.097009 18.866857 46.078125 18.771484 C 46.028979 18.521341 46 18.264354 46 18 C 46 17.761088 46.029984 17.530226 46.070312 17.302734 C 46.085448 17.219627 46.104526 17.136741 46.125 17.054688 C 46.158823 16.91636 46.202177 16.782694 46.25 16.650391 C 46.284513 16.556215 46.313767 16.460936 46.355469 16.369141 C 46.435633 16.190868 46.530385 16.020747 46.634766 15.857422 L 46.724609 15.714844 C 47.448407 14.680983 48.644664 14 50 14 z M 18 24 L 44 24 L 44 34 L 16 34 L 16 26 C 16 24.897 16.897 24 18 24 z M 45 24 L 55 24 L 55 34 L 45 34 L 45 24 z M 56 24 L 82 24 C 83.103 24 84 24.897 84 26 L 84.001953 34 L 56 34 L 56 24 z M 20 36 L 44 36 L 44 83 L 24 83 C 21.794 83 20 81.206 20 79 L 20 36 z M 45 36 L 55 36 L 55 83 L 45 83 L 45 36 z M 56 36 L 80 36 L 80 80 C 80 81.654 78.654 83 77 83 L 56 83 L 56 36 z M 23.5 39 C 23.224 39 23 39.224 23 39.5 L 23 40.5 C 23 40.776 23.224 41 23.5 41 C 23.776 41 24 40.776 24 40.5 L 24 39.5 C 24 39.224 23.776 39 23.5 39 z M 76.5 39 C 76.224 39 76 39.224 76 39.5 L 76 48.5 C 76 48.776 76.224 49 76.5 49 C 76.776 49 77 48.776 77 48.5 L 77 39.5 C 77 39.224 76.776 39 76.5 39 z M 23.5 43 C 23.224 43 23 43.224 23 43.5 L 23 47.5 C 23 47.776 23.224 48 23.5 48 C 23.776 48 24 47.776 24 47.5 L 24 43.5 C 24 43.224 23.776 43 23.5 43 z M 23.5 55 C 23.224 55 23 55.224 23 55.5 L 23 78.5 C 23 79.327 23.673 80 24.5 80 L 40.5 80 C 40.776 80 41 79.776 41 79.5 C 41 79.224 40.776 79 40.5 79 L 24.5 79 C 24.224 79 24 78.775 24 78.5 L 24 55.5 C 24 55.224 23.776 55 23.5 55 z M 76.5 55 C 76.224 55 76 55.224 76 55.5 L 76 57.5 C 76 57.776 76.224 58 76.5 58 C 76.776 58 77 57.776 77 57.5 L 77 55.5 C 77 55.224 76.776 55 76.5 55 z M 76.5 60 C 76.224 60 76 60.224 76 60.5 L 76 65.5 C 76 65.776 76.224 66 76.5 66 C 76.776 66 77 65.776 77 65.5 L 77 60.5 C 77 60.224 76.776 60 76.5 60 z M 76.5 68 C 76.224 68 76 68.224 76 68.5 L 76 78.5 C 76 78.775 75.776 79 75.5 79 L 59.5 79 C 59.224 79 59 79.224 59 79.5 C 59 79.776 59.224 80 59.5 80 L 75.5 80 C 76.327 80 77 79.327 77 78.5 L 77 68.5 C 77 68.224 76.776 68 76.5 68 z"></path></svg>