<svg xmlns="http://www.w3.org/2000/svg" fill="#000000" viewBox="0 0 100 100" width="100px" height="100px"><path d="M 24 15 C 19.593562 15 16 18.593562 16 23 L 16 27 A 1.0001 1.0001 0 0 0 16.035156 27.255859 L 16.021484 27.253906 L 13.017578 43.316406 L 13 43.5 C 13 46.011347 14.694862 48.13405 17 48.789062 L 17 77 C 17 81.406438 20.593562 85 25 85 L 76 85 C 80.406438 85 84 81.406438 84 77 L 84 48.763672 C 84.886132 48.518807 85.700287 48.063626 86.367188 47.394531 C 87.419188 46.338531 87.995234 44.920297 87.990234 43.404297 L 84.974609 27.224609 L 84.972656 27.224609 A 1.0001 1.0001 0 0 0 85 27 L 85 23 C 85 18.593562 81.406438 15 77 15 L 24 15 z M 24 17 L 77 17 C 80.325562 17 83 19.674438 83 23 L 83 26 L 18 26 L 18 23 C 18 19.674438 20.674438 17 24 17 z M 25.5 19 C 24.708334 19 24.051923 19.314878 23.626953 19.792969 C 23.201984 20.27106 23 20.888889 23 21.5 C 23 22.111111 23.201984 22.72894 23.626953 23.207031 C 24.051923 23.685122 24.708334 24 25.5 24 C 26.291666 24 26.948077 23.685122 27.373047 23.207031 C 27.798016 22.72894 28 22.111111 28 21.5 C 28 20.888889 27.798016 20.27106 27.373047 19.792969 C 26.948077 19.314878 26.291666 19 25.5 19 z M 32.5 19 C 31.708334 19 31.051923 19.314878 30.626953 19.792969 C 30.201984 20.27106 30 20.888889 30 21.5 C 30 22.111111 30.201984 22.72894 30.626953 23.207031 C 31.051923 23.685122 31.708334 24 32.5 24 C 33.291666 24 33.948077 23.685122 34.373047 23.207031 C 34.798016 22.72894 35 22.111111 35 21.5 C 35 20.888889 34.798016 20.27106 34.373047 19.792969 C 33.948077 19.314878 33.291666 19 32.5 19 z M 39.5 19 C 38.708334 19 38.051923 19.314878 37.626953 19.792969 C 37.201984 20.27106 37 20.888889 37 21.5 C 37 22.111111 37.201984 22.72894 37.626953 23.207031 C 38.051923 23.685122 38.708334 24 39.5 24 C 40.291666 24 40.948077 23.685122 41.373047 23.207031 C 41.798016 22.72894 42 22.111111 42 21.5 C 42 20.888889 41.798016 20.27106 41.373047 19.792969 C 40.948077 19.314878 40.291666 19 39.5 19 z M 25.5 20 C 26.041666 20 26.385256 20.185122 26.626953 20.457031 C 26.86865 20.72894 27 21.111111 27 21.5 C 27 21.888889 26.86865 22.27106 26.626953 22.542969 C 26.385256 22.814878 26.041666 23 25.5 23 C 24.958334 23 24.614744 22.814878 24.373047 22.542969 C 24.13135 22.27106 24 21.888889 24 21.5 C 24 21.111111 24.13135 20.72894 24.373047 20.457031 C 24.614744 20.185122 24.958334 20 25.5 20 z M 32.5 20 C 33.041666 20 33.385256 20.185122 33.626953 20.457031 C 33.86865 20.72894 34 21.111111 34 21.5 C 34 21.888889 33.86865 22.27106 33.626953 22.542969 C 33.385256 22.814878 33.041666 23 32.5 23 C 31.958334 23 31.614744 22.814878 31.373047 22.542969 C 31.13135 22.27106 31 21.888889 31 21.5 C 31 21.111111 31.13135 20.72894 31.373047 20.457031 C 31.614744 20.185122 31.958334 20 32.5 20 z M 39.5 20 C 40.041666 20 40.385256 20.185122 40.626953 20.457031 C 40.86865 20.72894 41 21.111111 41 21.5 C 41 21.888889 40.86865 22.27106 40.626953 22.542969 C 40.385256 22.814878 40.041666 23 39.5 23 C 38.958334 23 38.614744 22.814878 38.373047 22.542969 C 38.13135 22.27106 38 21.888889 38 21.5 C 38 21.111111 38.13135 20.72894 38.373047 20.457031 C 38.614744 20.185122 38.958334 20 39.5 20 z M 17.916016 28 L 22 28 L 22 43 L 15.111328 43 L 17.916016 28 z M 23 28 L 30 28 L 30 43 L 23 43 L 23 28 z M 31 28 L 38 28 L 38 43 L 31 43 L 31 28 z M 39 28 L 46 28 L 46 43 L 39 43 L 39 28 z M 47 28 L 54 28 L 54 43 L 47 43 L 47 28 z M 55 28 L 62 28 L 62 43 L 55 43 L 55 28 z M 63 28 L 70 28 L 70 43 L 63 43 L 63 28 z M 71 28 L 78 28 L 78 43 L 71 43 L 71 28 z M 79 28 L 83.083984 28 L 85.896484 43 L 79 43 L 79 28 z M 15.054688 44 L 21.951172 44 C 21.708018 45.698134 20.267392 47 18.5 47 C 18.328376 47 18.164832 46.972886 18 46.949219 C 17.793271 46.919278 17.592026 46.870829 17.398438 46.806641 C 17.39726 46.806249 17.395708 46.807033 17.394531 46.806641 C 17.394531 46.806641 17.392578 46.804688 17.392578 46.804688 C 17.013211 46.678135 16.662987 46.487722 16.353516 46.248047 C 16.33346 46.23234 16.31462 46.215353 16.294922 46.199219 C 16.161231 46.090954 16.036232 45.97408 15.919922 45.847656 C 15.886328 45.810632 15.856217 45.770877 15.824219 45.732422 C 15.730311 45.621144 15.640088 45.507264 15.560547 45.384766 C 15.497728 45.286458 15.44552 45.180917 15.392578 45.076172 C 15.352732 44.998597 15.30747 44.924571 15.273438 44.84375 C 15.163551 44.578404 15.096806 44.293987 15.054688 44 z M 23.048828 44 L 29.951172 44 C 29.708018 45.698134 28.267392 47 26.5 47 C 24.732608 47 23.291982 45.698134 23.048828 44 z M 31.048828 44 L 37.951172 44 C 37.708018 45.698134 36.267392 47 34.5 47 C 32.732608 47 31.291982 45.698134 31.048828 44 z M 39.048828 44 L 45.951172 44 C 45.708018 45.698134 44.267392 47 42.5 47 C 40.732608 47 39.291982 45.698134 39.048828 44 z M 47.048828 44 L 53.951172 44 C 53.708018 45.698134 52.267392 47 50.5 47 C 48.732608 47 47.291982 45.698134 47.048828 44 z M 55.048828 44 L 61.951172 44 C 61.708018 45.698134 60.267392 47 58.5 47 C 56.732608 47 55.291982 45.698134 55.048828 44 z M 63.048828 44 L 69.951172 44 C 69.708018 45.698134 68.267392 47 66.5 47 C 64.732608 47 63.291982 45.698134 63.048828 44 z M 71.048828 44 L 77.951172 44 C 77.708018 45.698134 76.267392 47 74.5 47 C 72.732608 47 71.291982 45.698134 71.048828 44 z M 79.048828 44 L 85.933594 44 C 85.817255 44.752926 85.487133 45.444821 84.951172 45.982422 C 84.694154 46.240402 84.401045 46.445787 84.085938 46.605469 C 84.069284 46.613983 84.053918 46.624559 84.037109 46.632812 C 83.888662 46.704994 83.733708 46.764092 83.576172 46.814453 C 83.550182 46.822869 83.524304 46.832023 83.498047 46.839844 C 83.33496 46.887819 83.168055 46.926456 82.998047 46.951172 C 82.833884 46.974642 82.670894 47 82.5 47 C 80.732608 47 79.291982 45.698134 79.048828 44 z M 30.5 45.466797 C 31.236351 46.952064 32.734521 48 34.5 48 C 36.265479 48 37.763649 46.952064 38.5 45.466797 C 39.236351 46.952064 40.734521 48 42.5 48 C 44.265479 48 45.763649 46.952064 46.5 45.466797 C 47.236351 46.952064 48.734521 48 50.5 48 C 52.265479 48 53.763649 46.952064 54.5 45.466797 C 55.236351 46.952064 56.734521 48 58.5 48 C 59.030259 48 59.531367 47.89518 60 47.722656 L 60 80 L 25.5 80 C 23.561258 80 22 78.438742 22 76.5 L 22 61.5 A 0.50005 0.50005 0 1 0 21 61.5 L 21 76.5 C 21 78.979258 23.020742 81 25.5 81 L 60.5 81 A 0.50005 0.50005 0 0 0 61 80.5 L 61 47.205078 C 61.633226 46.763344 62.153151 46.166413 62.5 45.466797 C 62.638271 45.745698 62.811279 46.002077 63 46.246094 L 63 51.5 A 0.50005 0.50005 0 1 0 64 51.5 L 64 47.205078 C 64.711096 47.701134 65.566128 48 66.5 48 C 68.265479 48 69.763649 46.952064 70.5 45.466797 C 71.236351 46.952064 72.734521 48 74.5 48 C 76.250123 48 77.756358 46.983895 78.5 45.519531 C 78.647147 45.80929 78.825484 46.07649 79.029297 46.326172 A 0.50005 0.50005 0 0 0 79 46.5 L 79 76.5 C 79 78.438742 77.438742 80 75.5 80 L 64 80 L 64 58.5 A 0.50005 0.50005 0 1 0 63 58.5 L 63 80.5 A 0.50005 0.50005 0 0 0 63.5 81 L 75.5 81 C 77.979258 81 80 78.979258 80 76.5 L 80 47.238281 C 80.583077 47.629762 81.268752 47.866675 82 47.949219 L 82 77 C 82 80.325562 79.325562 83 76 83 L 25 83 C 21.674438 83 19 80.325562 19 77 L 19 47.949219 C 20.533658 47.776098 21.829168 46.84052 22.5 45.519531 C 23.243642 46.983895 24.749877 48 26.5 48 C 28.265479 48 29.763649 46.952064 30.5 45.466797 z M 21.492188 48.992188 A 0.50005 0.50005 0 0 0 21 49.5 L 21 50.5 A 0.50005 0.50005 0 1 0 22 50.5 L 22 49.5 A 0.50005 0.50005 0 0 0 21.492188 48.992188 z M 21.492188 52.992188 A 0.50005 0.50005 0 0 0 21 53.5 L 21 58.5 A 0.50005 0.50005 0 1 0 22 58.5 L 22 53.5 A 0.50005 0.50005 0 0 0 21.492188 52.992188 z M 63.492188 52.992188 A 0.50005 0.50005 0 0 0 63 53.5 L 63 55.5 A 0.50005 0.50005 0 1 0 64 55.5 L 64 53.5 A 0.50005 0.50005 0 0 0 63.492188 52.992188 z M 41 55 A 1 1 0 0 0 40.033203 56.255859 L 36.441406 59.822266 L 31.501953 60.597656 A 0.50005 0.50005 0 0 0 31.085938 61.164062 L 31.802734 66.072266 A 0.50005 0.50005 0 0 0 32.375 66.494141 L 52.078125 63.402344 A 0.50005 0.50005 0 0 0 52.494141 62.835938 L 51.777344 57.927734 A 0.50005 0.50005 0 0 0 51.294922 57.5 A 0.50005 0.50005 0 0 0 51.205078 57.505859 L 46.617188 58.226562 L 41.998047 55.9375 A 1 1 0 0 0 41 55 z M 41.552734 56.832031 L 44.908203 58.494141 L 38.128906 59.558594 L 40.738281 56.964844 A 1 1 0 0 0 41 57 A 1 1 0 0 0 41.552734 56.832031 z M 50.859375 58.572266 L 51.433594 62.492188 L 32.720703 65.427734 L 32.146484 61.507812 L 50.859375 58.572266 z M 76 60 C 75.375 60 74.843589 60.252378 74.501953 60.636719 C 74.160317 61.02106 74 61.513889 74 62 C 74 62.486111 74.160317 62.97894 74.501953 63.363281 C 74.843589 63.747622 75.375 64 76 64 C 76.625 64 77.156411 63.747622 77.498047 63.363281 C 77.839683 62.97894 78 62.486111 78 62 C 78 61.513889 77.839683 61.02106 77.498047 60.636719 C 77.156411 60.252378 76.625 60 76 60 z M 76 61 C 76.375 61 76.59359 61.122622 76.751953 61.300781 C 76.910317 61.47894 77 61.736111 77 62 C 77 62.263889 76.91032 62.52106 76.751953 62.699219 C 76.59359 62.877378 76.375 63 76 63 C 75.625 63 75.40641 62.877378 75.248047 62.699219 C 75.089683 62.52106 75 62.263889 75 62 C 75 61.736111 75.089683 61.47894 75.248047 61.300781 C 75.40641 61.122622 75.625 61 76 61 z"></path></svg>