<?xml version="1.0" standalone="no"?>
<!DOCTYPE svg PUBLIC "-//W3C//DTD SVG 20010904//EN"
 "http://www.w3.org/TR/2001/REC-SVG-20010904/DTD/svg10.dtd">
<svg version="1.0" xmlns="http://www.w3.org/2000/svg"
 width="620.000000pt" height="620.000000pt" viewBox="0 0 620.000000 620.000000"
 preserveAspectRatio="xMidYMid meet">
<metadata>
Created by potrace 1.14, written by Peter Selinger 2001-2017
</metadata>
<g transform="translate(0.000000,620.000000) scale(0.100000,-0.100000)"
fill="#000000" stroke="none">
<path d="M2997 6194 c-1 -1 -50 -4 -108 -8 -59 -3 -126 -9 -150 -11 -57 -7
-190 -29 -249 -40 -14 -3 -38 -8 -53 -11 -289 -52 -765 -252 -1032 -434 -12
-8 -42 -28 -66 -44 -24 -16 -50 -35 -57 -43 -7 -7 -17 -13 -20 -13 -4 0 -18
-10 -32 -23 -14 -12 -35 -30 -47 -38 -80 -55 -368 -333 -443 -428 -19 -24 -40
-48 -45 -55 -6 -6 -31 -38 -55 -71 -25 -33 -50 -65 -55 -71 -9 -10 -52 -75
-147 -224 -38 -59 -179 -347 -211 -430 -46 -119 -76 -204 -97 -280 -11 -41
-25 -88 -30 -105 -5 -16 -12 -43 -14 -60 -3 -16 -8 -41 -11 -55 -11 -47 -34
-177 -40 -226 -4 -27 -8 -60 -10 -73 -22 -136 -22 -598 0 -706 2 -11 7 -40 10
-65 3 -25 7 -56 10 -70 2 -13 7 -42 11 -64 3 -22 7 -43 9 -46 2 -3 6 -22 9
-42 5 -33 11 -59 30 -138 2 -8 12 -42 22 -75 10 -33 19 -64 20 -70 5 -23 74
-215 96 -265 30 -71 149 -309 190 -380 33 -57 176 -271 187 -280 4 -3 20 -23
36 -46 103 -141 413 -454 528 -533 12 -8 24 -18 27 -21 13 -17 215 -155 300
-206 236 -141 633 -305 840 -348 14 -3 36 -8 50 -11 43 -10 124 -25 160 -31
19 -3 41 -7 48 -9 7 -3 40 -7 75 -11 34 -3 65 -8 68 -10 10 -6 252 -18 349
-18 89 0 307 11 350 18 14 2 46 7 71 10 25 4 57 9 70 11 13 2 40 6 59 9 19 3
76 15 125 26 50 11 99 23 111 25 116 26 460 152 521 192 15 10 28 17 30 15 15
-12 421 229 481 286 7 6 17 12 20 12 4 0 18 10 32 23 14 12 45 38 70 57 25 19
61 48 80 65 46 39 287 280 325 325 355 418 598 921 694 1440 27 143 47 307 51
415 7 178 0 432 -14 515 -3 14 -7 46 -10 72 -4 26 -15 93 -26 150 -27 147 -30
161 -37 183 -4 11 -8 25 -9 31 -1 6 -9 37 -18 68 -9 31 -16 57 -16 58 2 8 -75
215 -104 283 -22 52 -155 318 -182 365 -34 59 -155 241 -171 258 -7 7 -13 17
-13 20 0 4 -10 18 -23 32 -12 14 -38 45 -57 70 -128 166 -469 492 -579 554 -9
5 -18 12 -21 16 -7 9 -188 127 -265 172 -81 48 -262 137 -359 177 -72 30 -263
101 -269 99 -4 -1 -93 24 -132 37 -22 7 -56 16 -75 19 -19 3 -46 8 -60 11 -82
17 -184 35 -226 40 -27 3 -58 8 -69 10 -48 9 -449 27 -458 19z"/>
</g>
</svg>
